<svg xmlns="http://www.w3.org/2000/svg" viewBox="0 0 120 40" fill="none">
  <path d="M24.5 20c0-3-1.2-5.5-3-7.5l2-2c2.2 2.5 3.5 6 3.5 9.5s-1.3 7-3.5 9.5l-2-2c1.8-2 3-4.5 3-7.5z" fill="#FF9900"/>
  <path d="M24.5 12c-1.5-2-3.8-3.5-6.5-3.5-4.5 0-8 3.5-8 8s3.5 8 8 8c2.7 0 5-1.5 6.5-3.5l2 2c-2 2.8-5 4.5-8.5 4.5-6 0-11-5-11-11s5-11 11-11c3.5 0 6.5 1.7 8.5 4.5l-2 2z" fill="#FF9900"/>
  <text x="38" y="26" font-family="Arial,sans-serif" font-weight="bold" font-size="16" fill="#232F3E">amazon</text>
</svg>