<svg xmlns="http://www.w3.org/2000/svg" viewBox="0 0 780 150" width="780" height="150">
  <defs>
    <linearGradient id="wc-grad" x1="0%" y1="0%" x2="100%" y2="100%">
      <stop offset="0%" style="stop-color:#96588A"/>
      <stop offset="100%" style="stop-color:#7F54B3"/>
    </linearGradient>
  </defs>
  <!-- W Icon -->
  <g transform="translate(15,30)">
    <circle cx="37" cy="37" r="35" fill="url(#wc-grad)"/>
    <path d="M37 15c-12.2 0-22 9.8-22 22s9.8 22 22 22 22-9.8 22-22-9.8-22-22-22zm-5 14l7 11-7 11h6l4-7 4 7h6l-7-11 7-11h-6l-4 7-4-7h-6z" fill="#fff"/>
  </g>
  <!-- WooCommerce Text -->
  <g transform="translate(105,45)" fill="#96588A">
    <path d="M0 5v60h18V45h12q18 0 28-9t10-23q0-14-10-23t-28-9H0zm18 15h10q10 0 15 4t5 12q0 8-5 12t-15 4H18V20z"/>
    <path d="M105 5l-4 60h18l4-40h1l14 40h18l14-40h1l4 40h18l-4-60h-26l-12 35h-1l-12-35z"/>
    <path d="M218 5l-4 60h40q18 0 28-9t10-23q0-14-10-23t-28-9h-22l1-1 4 1zm18 15h20q10 0 15 4t5 12q0 8-5 12t-15 4h-20V20z"/>
    <path d="M340 5q-18 0-28 10t-10 26q0 16 10 26t28 10q18 0 28-10t10-26q0-16-10-26t-28-10zm0 14q6 0 9 4t3 12q0 8-3 12t-9 4q-6 0-9-4t-3-12q0-8 3-12t9-4z"/>
    <path d="M430 5l-4 60h18l4-40h1l14 40h18l14-40h1l4 40h18l-4-60z"/>
    <path d="M520 5q-18 0-28 10t-10 26q0 16 10 26t28 10q18 0 28-10t10-26q0-16-10-26t-28-10zm0 14q6 0 9 4t3 12q0 8-3 12t-9 4q-6 0-9-4t-3-12q0-8 3-12t9-4z"/>
    <path d="M592 5l-4 60h24q18 0 28-9t10-23q0-14-10-23t-28-9h-6zm18 15h4q10 0 15 4t5 12q0 8-5 12t-15 4h-4V20z"/>
    <path d="M680 5q-18 0-28 10t-10 26q0 16 10 26t28 10q18 0 28-10t10-26q0-16-10-26t-28-10zm0 14q6 0 9 4t3 12q0 8-3 12t-9 4q-6 0-9-4t-3-12q0-8 3-12t9-4z"/>
  </g>
</svg>
